<svg xmlns="http://www.w3.org/2000/svg" xmlns:xlink="http://www.w3.org/1999/xlink" width="500" zoomAndPan="magnify" viewBox="0 0 375 112.499997" height="150" preserveAspectRatio="xMidYMid meet" version="1.0"><defs><g/><clipPath id="f5f3b74b6d"><path d="M 35 25.222656 L 68.683594 25.222656 L 68.683594 55 L 35 55 Z M 35 25.222656 " clip-rule="nonzero"/></clipPath><clipPath id="9ec8baa0ec"><path d="M 9.695312 35 L 59 35 L 59 73.007812 L 9.695312 73.007812 Z M 9.695312 35 " clip-rule="nonzero"/></clipPath></defs><g clip-path="url(#f5f3b74b6d)"><path fill="#ffde59" d="M 56.109375 54.671875 C 48.253906 48.59375 41.496094 43.949219 35.871094 40.777344 C 37.984375 35.300781 40.363281 30.128906 43.007812 25.183594 C 45.800781 30.394531 48.332031 35.90625 50.519531 41.722656 C 56.675781 42.023438 62.640625 42.742188 68.417969 43.796875 C 64.339844 47.6875 60.222656 51.3125 56.109375 54.632812 Z M 56.109375 54.671875 " fill-opacity="1" fill-rule="evenodd"/></g><g clip-path="url(#9ec8baa0ec)"><path fill="#ff3131" d="M 44.554688 50.441406 C 49.085938 54.105469 52.976562 57.351562 56.296875 60.144531 C 57.316406 64.1875 58.183594 68.339844 58.976562 72.605469 C 53.730469 70.113281 48.59375 67.207031 43.460938 63.921875 C 38.0625 67.472656 32.585938 70.566406 27.035156 73.210938 C 28.773438 64.714844 30.246094 58.523438 32.246094 51.800781 C 34.851562 51.800781 38.175781 52.066406 41.421875 53.691406 C 34.925781 48.96875 9.707031 31.035156 14.046875 50.746094 C 8.800781 42.136719 8.574219 37.152344 13.332031 35.832031 C 19.671875 35.753906 26.847656 38.285156 34.890625 43.421875 C 37.984375 45.382812 41.195312 47.761719 44.515625 50.519531 Z M 44.554688 50.441406 " fill-opacity="1" fill-rule="evenodd"/></g><g fill="#ff3131" fill-opacity="1"><g transform="translate(72.670694, 68.588145)"><g><path d="M 18.578125 0 L 11.625 -11.921875 L 7.03125 -11.921875 L 7.03125 0 L 3.21875 0 L 3.21875 -29.171875 L 12.640625 -29.171875 C 14.835938 -29.171875 16.695312 -28.789062 18.21875 -28.03125 C 19.738281 -27.28125 20.875 -26.265625 21.625 -24.984375 C 22.382812 -23.703125 22.765625 -22.238281 22.765625 -20.59375 C 22.765625 -18.582031 22.1875 -16.804688 21.03125 -15.265625 C 19.875 -13.734375 18.132812 -12.71875 15.8125 -12.21875 L 23.140625 0 Z M 7.03125 -14.984375 L 12.640625 -14.984375 C 14.703125 -14.984375 16.25 -15.488281 17.28125 -16.5 C 18.3125 -17.519531 18.828125 -18.882812 18.828125 -20.59375 C 18.828125 -22.320312 18.316406 -23.660156 17.296875 -24.609375 C 16.285156 -25.554688 14.734375 -26.03125 12.640625 -26.03125 L 7.03125 -26.03125 Z M 7.03125 -14.984375 "/></g></g></g><g fill="#ff3131" fill-opacity="1"><g transform="translate(99.538041, 68.588145)"><g><path d="M 24.140625 -12.34375 C 24.140625 -11.613281 24.097656 -10.847656 24.015625 -10.046875 L 5.6875 -10.046875 C 5.832031 -7.785156 6.609375 -6.019531 8.015625 -4.75 C 9.421875 -3.476562 11.128906 -2.84375 13.140625 -2.84375 C 14.785156 -2.84375 16.15625 -3.222656 17.25 -3.984375 C 18.351562 -4.753906 19.128906 -5.785156 19.578125 -7.078125 L 23.6875 -7.078125 C 23.070312 -4.867188 21.84375 -3.070312 20 -1.6875 C 18.15625 -0.3125 15.867188 0.375 13.140625 0.375 C 10.960938 0.375 9.015625 -0.109375 7.296875 -1.078125 C 5.585938 -2.054688 4.242188 -3.445312 3.265625 -5.25 C 2.285156 -7.050781 1.796875 -9.132812 1.796875 -11.5 C 1.796875 -13.875 2.269531 -15.953125 3.21875 -17.734375 C 4.164062 -19.523438 5.5 -20.898438 7.21875 -21.859375 C 8.9375 -22.828125 10.910156 -23.3125 13.140625 -23.3125 C 15.316406 -23.3125 17.238281 -22.835938 18.90625 -21.890625 C 20.582031 -20.941406 21.875 -19.632812 22.78125 -17.96875 C 23.6875 -16.3125 24.140625 -14.4375 24.140625 -12.34375 Z M 20.203125 -13.140625 C 20.203125 -14.585938 19.878906 -15.832031 19.234375 -16.875 C 18.597656 -17.925781 17.726562 -18.722656 16.625 -19.265625 C 15.53125 -19.804688 14.3125 -20.078125 12.96875 -20.078125 C 11.039062 -20.078125 9.398438 -19.460938 8.046875 -18.234375 C 6.703125 -17.015625 5.929688 -15.316406 5.734375 -13.140625 Z M 20.203125 -13.140625 "/></g></g></g><g fill="#ff3131" fill-opacity="1"><g transform="translate(126.907577, 68.588145)"><g><path d="M 1.796875 -11.546875 C 1.796875 -13.890625 2.269531 -15.945312 3.21875 -17.71875 C 4.164062 -19.488281 5.46875 -20.863281 7.125 -21.84375 C 8.789062 -22.820312 10.65625 -23.3125 12.71875 -23.3125 C 14.507812 -23.3125 16.171875 -22.898438 17.703125 -22.078125 C 19.234375 -21.253906 20.40625 -20.171875 21.21875 -18.828125 L 21.21875 -30.96875 L 25.0625 -30.96875 L 25.0625 0 L 21.21875 0 L 21.21875 -4.3125 C 20.457031 -2.945312 19.335938 -1.820312 17.859375 -0.9375 C 16.390625 -0.0625 14.660156 0.375 12.671875 0.375 C 10.640625 0.375 8.789062 -0.125 7.125 -1.125 C 5.46875 -2.132812 4.164062 -3.546875 3.21875 -5.359375 C 2.269531 -7.171875 1.796875 -9.234375 1.796875 -11.546875 Z M 21.21875 -11.5 C 21.21875 -13.226562 20.867188 -14.734375 20.171875 -16.015625 C 19.472656 -17.304688 18.53125 -18.289062 17.34375 -18.96875 C 16.15625 -19.65625 14.851562 -20 13.4375 -20 C 12.007812 -20 10.707031 -19.664062 9.53125 -19 C 8.363281 -18.332031 7.429688 -17.351562 6.734375 -16.0625 C 6.035156 -14.78125 5.6875 -13.273438 5.6875 -11.546875 C 5.6875 -9.785156 6.035156 -8.253906 6.734375 -6.953125 C 7.429688 -5.660156 8.363281 -4.671875 9.53125 -3.984375 C 10.707031 -3.304688 12.007812 -2.96875 13.4375 -2.96875 C 14.851562 -2.96875 16.15625 -3.304688 17.34375 -3.984375 C 18.53125 -4.671875 19.472656 -5.660156 20.171875 -6.953125 C 20.867188 -8.253906 21.21875 -9.769531 21.21875 -11.5 Z M 21.21875 -11.5 "/></g></g></g><g fill="#ff3131" fill-opacity="1"><g transform="translate(156.620666, 68.588145)"><g><path d="M 18.578125 0 L 11.625 -11.921875 L 7.03125 -11.921875 L 7.03125 0 L 3.21875 0 L 3.21875 -29.171875 L 12.640625 -29.171875 C 14.835938 -29.171875 16.695312 -28.789062 18.21875 -28.03125 C 19.738281 -27.28125 20.875 -26.265625 21.625 -24.984375 C 22.382812 -23.703125 22.765625 -22.238281 22.765625 -20.59375 C 22.765625 -18.582031 22.1875 -16.804688 21.03125 -15.265625 C 19.875 -13.734375 18.132812 -12.71875 15.8125 -12.21875 L 23.140625 0 Z M 7.03125 -14.984375 L 12.640625 -14.984375 C 14.703125 -14.984375 16.25 -15.488281 17.28125 -16.5 C 18.3125 -17.519531 18.828125 -18.882812 18.828125 -20.59375 C 18.828125 -22.320312 18.316406 -23.660156 17.296875 -24.609375 C 16.285156 -25.554688 14.734375 -26.03125 12.640625 -26.03125 L 7.03125 -26.03125 Z M 7.03125 -14.984375 "/></g></g></g><g fill="#ff3131" fill-opacity="1"><g transform="translate(183.488013, 68.588145)"><g><path d="M 13.21875 0.375 C 11.070312 0.375 9.125 -0.109375 7.375 -1.078125 C 5.632812 -2.054688 4.269531 -3.445312 3.28125 -5.25 C 2.289062 -7.050781 1.796875 -9.132812 1.796875 -11.5 C 1.796875 -13.84375 2.304688 -15.914062 3.328125 -17.71875 C 4.347656 -19.519531 5.734375 -20.898438 7.484375 -21.859375 C 9.242188 -22.828125 11.210938 -23.3125 13.390625 -23.3125 C 15.566406 -23.3125 17.53125 -22.828125 19.28125 -21.859375 C 21.039062 -20.898438 22.429688 -19.523438 23.453125 -17.734375 C 24.472656 -15.953125 24.984375 -13.875 24.984375 -11.5 C 24.984375 -9.132812 24.457031 -7.050781 23.40625 -5.25 C 22.363281 -3.445312 20.945312 -2.054688 19.15625 -1.078125 C 17.375 -0.109375 15.394531 0.375 13.21875 0.375 Z M 13.21875 -2.96875 C 14.582031 -2.96875 15.863281 -3.285156 17.0625 -3.921875 C 18.269531 -4.566406 19.242188 -5.53125 19.984375 -6.8125 C 20.722656 -8.101562 21.09375 -9.664062 21.09375 -11.5 C 21.09375 -13.34375 20.726562 -14.90625 20 -16.1875 C 19.269531 -17.476562 18.320312 -18.4375 17.15625 -19.0625 C 15.988281 -19.6875 14.71875 -20 13.34375 -20 C 11.945312 -20 10.671875 -19.6875 9.515625 -19.0625 C 8.359375 -18.4375 7.429688 -17.476562 6.734375 -16.1875 C 6.035156 -14.90625 5.6875 -13.34375 5.6875 -11.5 C 5.6875 -9.632812 6.023438 -8.0625 6.703125 -6.78125 C 7.390625 -5.5 8.304688 -4.539062 9.453125 -3.90625 C 10.597656 -3.28125 11.851562 -2.96875 13.21875 -2.96875 Z M 13.21875 -2.96875 "/></g></g></g><g fill="#ff3131" fill-opacity="1"><g transform="translate(211.694535, 68.588145)"><g><path d="M 1.796875 -11.5 C 1.796875 -13.875 2.269531 -15.945312 3.21875 -17.71875 C 4.164062 -19.488281 5.484375 -20.863281 7.171875 -21.84375 C 8.859375 -22.820312 10.789062 -23.3125 12.96875 -23.3125 C 15.789062 -23.3125 18.113281 -22.625 19.9375 -21.25 C 21.757812 -19.882812 22.96875 -17.988281 23.5625 -15.5625 L 19.453125 -15.5625 C 19.066406 -16.957031 18.304688 -18.054688 17.171875 -18.859375 C 16.046875 -19.671875 14.644531 -20.078125 12.96875 -20.078125 C 10.789062 -20.078125 9.03125 -19.332031 7.6875 -17.84375 C 6.351562 -16.351562 5.6875 -14.238281 5.6875 -11.5 C 5.6875 -8.738281 6.351562 -6.601562 7.6875 -5.09375 C 9.03125 -3.59375 10.789062 -2.84375 12.96875 -2.84375 C 14.644531 -2.84375 16.039062 -3.234375 17.15625 -4.015625 C 18.269531 -4.796875 19.035156 -5.910156 19.453125 -7.359375 L 23.5625 -7.359375 C 22.945312 -5.015625 21.71875 -3.140625 19.875 -1.734375 C 18.03125 -0.328125 15.726562 0.375 12.96875 0.375 C 10.789062 0.375 8.859375 -0.109375 7.171875 -1.078125 C 5.484375 -2.054688 4.164062 -3.4375 3.21875 -5.21875 C 2.269531 -7.007812 1.796875 -9.101562 1.796875 -11.5 Z M 1.796875 -11.5 "/></g></g></g><g fill="#ff3131" fill-opacity="1"><g transform="translate(238.520034, 68.588145)"><g><path d="M 16.03125 0 L 7.03125 -10.125 L 7.03125 0 L 3.21875 0 L 3.21875 -30.96875 L 7.03125 -30.96875 L 7.03125 -12.765625 L 15.859375 -22.9375 L 21.171875 -22.9375 L 10.375 -11.5 L 21.21875 0 Z M 16.03125 0 "/></g></g></g><g fill="#ff3131" fill-opacity="1"><g transform="translate(261.4954, 68.588145)"><g/></g></g><g fill="#ffde59" fill-opacity="1"><g transform="translate(274.099662, 68.588145)"><g><path d="M 18.578125 0 L 11.625 -11.921875 L 7.03125 -11.921875 L 7.03125 0 L 3.21875 0 L 3.21875 -29.171875 L 12.640625 -29.171875 C 14.835938 -29.171875 16.695312 -28.789062 18.21875 -28.03125 C 19.738281 -27.28125 20.875 -26.265625 21.625 -24.984375 C 22.382812 -23.703125 22.765625 -22.238281 22.765625 -20.59375 C 22.765625 -18.582031 22.1875 -16.804688 21.03125 -15.265625 C 19.875 -13.734375 18.132812 -12.71875 15.8125 -12.21875 L 23.140625 0 Z M 7.03125 -14.984375 L 12.640625 -14.984375 C 14.703125 -14.984375 16.25 -15.488281 17.28125 -16.5 C 18.3125 -17.519531 18.828125 -18.882812 18.828125 -20.59375 C 18.828125 -22.320312 18.316406 -23.660156 17.296875 -24.609375 C 16.285156 -25.554688 14.734375 -26.03125 12.640625 -26.03125 L 7.03125 -26.03125 Z M 7.03125 -14.984375 "/></g></g></g><g fill="#ffde59" fill-opacity="1"><g transform="translate(300.967009, 68.588145)"><g><path d="M 24.140625 -12.34375 C 24.140625 -11.613281 24.097656 -10.847656 24.015625 -10.046875 L 5.6875 -10.046875 C 5.832031 -7.785156 6.609375 -6.019531 8.015625 -4.75 C 9.421875 -3.476562 11.128906 -2.84375 13.140625 -2.84375 C 14.785156 -2.84375 16.15625 -3.222656 17.25 -3.984375 C 18.351562 -4.753906 19.128906 -5.785156 19.578125 -7.078125 L 23.6875 -7.078125 C 23.070312 -4.867188 21.84375 -3.070312 20 -1.6875 C 18.15625 -0.3125 15.867188 0.375 13.140625 0.375 C 10.960938 0.375 9.015625 -0.109375 7.296875 -1.078125 C 5.585938 -2.054688 4.242188 -3.445312 3.265625 -5.25 C 2.285156 -7.050781 1.796875 -9.132812 1.796875 -11.5 C 1.796875 -13.875 2.269531 -15.953125 3.21875 -17.734375 C 4.164062 -19.523438 5.5 -20.898438 7.21875 -21.859375 C 8.9375 -22.828125 10.910156 -23.3125 13.140625 -23.3125 C 15.316406 -23.3125 17.238281 -22.835938 18.90625 -21.890625 C 20.582031 -20.941406 21.875 -19.632812 22.78125 -17.96875 C 23.6875 -16.3125 24.140625 -14.4375 24.140625 -12.34375 Z M 20.203125 -13.140625 C 20.203125 -14.585938 19.878906 -15.832031 19.234375 -16.875 C 18.597656 -17.925781 17.726562 -18.722656 16.625 -19.265625 C 15.53125 -19.804688 14.3125 -20.078125 12.96875 -20.078125 C 11.039062 -20.078125 9.398438 -19.460938 8.046875 -18.234375 C 6.703125 -17.015625 5.929688 -15.316406 5.734375 -13.140625 Z M 20.203125 -13.140625 "/></g></g></g><g fill="#ffde59" fill-opacity="1"><g transform="translate(328.336545, 68.588145)"><g><path d="M 7.03125 -18.703125 C 7.78125 -20.015625 8.898438 -21.109375 10.390625 -21.984375 C 11.890625 -22.867188 13.628906 -23.3125 15.609375 -23.3125 C 17.640625 -23.3125 19.484375 -22.820312 21.140625 -21.84375 C 22.804688 -20.863281 24.113281 -19.488281 25.0625 -17.71875 C 26.007812 -15.945312 26.484375 -13.890625 26.484375 -11.546875 C 26.484375 -9.234375 26.007812 -7.171875 25.0625 -5.359375 C 24.113281 -3.546875 22.804688 -2.132812 21.140625 -1.125 C 19.484375 -0.125 17.640625 0.375 15.609375 0.375 C 13.648438 0.375 11.925781 -0.0625 10.4375 -0.9375 C 8.945312 -1.820312 7.8125 -2.914062 7.03125 -4.21875 L 7.03125 10.875 L 3.21875 10.875 L 3.21875 -22.9375 L 7.03125 -22.9375 Z M 22.59375 -11.546875 C 22.59375 -13.273438 22.242188 -14.78125 21.546875 -16.0625 C 20.847656 -17.351562 19.90625 -18.332031 18.71875 -19 C 17.539062 -19.664062 16.238281 -20 14.8125 -20 C 13.414062 -20 12.125 -19.65625 10.9375 -18.96875 C 9.75 -18.289062 8.800781 -17.300781 8.09375 -16 C 7.382812 -14.707031 7.03125 -13.207031 7.03125 -11.5 C 7.03125 -9.769531 7.382812 -8.253906 8.09375 -6.953125 C 8.800781 -5.660156 9.75 -4.671875 10.9375 -3.984375 C 12.125 -3.304688 13.414062 -2.96875 14.8125 -2.96875 C 16.238281 -2.96875 17.539062 -3.304688 18.71875 -3.984375 C 19.90625 -4.671875 20.847656 -5.660156 21.546875 -6.953125 C 22.242188 -8.253906 22.59375 -9.785156 22.59375 -11.546875 Z M 22.59375 -11.546875 "/></g></g></g></svg>